<?xml version="1.0" encoding="UTF-8" standalone="no"?>
<!-- Created with Inkscape (http://www.inkscape.org/) -->

<svg
   version="1.1"
   id="svg2"
   xml:space="preserve"
   width="430.48132"
   height="589.63599"
   viewBox="0 0 430.48132 589.63599"
   sodipodi:docname="geolab-ლოგო.ai"
   xmlns:inkscape="http://www.inkscape.org/namespaces/inkscape"
   xmlns:sodipodi="http://sodipodi.sourceforge.net/DTD/sodipodi-0.dtd"
   xmlns="http://www.w3.org/2000/svg"
   xmlns:svg="http://www.w3.org/2000/svg"><defs
     id="defs6"><clipPath
       clipPathUnits="userSpaceOnUse"
       id="clipPath16"><path
         d="M 2.375,0 H 322.861 V 442.227 H 2.375 Z"
         id="path14" /></clipPath></defs><sodipodi:namedview
     id="namedview4"
     pagecolor="#ffffff"
     bordercolor="#666666"
     borderopacity="1.0"
     inkscape:pageshadow="2"
     inkscape:pageopacity="0.0"
     inkscape:pagecheckerboard="0" /><g
     id="g8"
     inkscape:groupmode="layer"
     inkscape:label="geolab-ლოგო"
     transform="matrix(1.3333333,0,0,-1.3333333,0,589.636)"><g
       id="g10"><g
         id="g12"
         clip-path="url(#clipPath16)"><g
           id="g18"
           transform="translate(164.0166,146.1348)"><path
             d="M 0,0 5.404,5.402 C 3.591,11.351 5.077,18.08 9.84,22.707 c 3.195,3.103 7.309,4.719 11.436,4.823 2.69,0.333 5.441,0.013 8.001,-0.92 L 16.958,14.638 26.199,5.169 38.5,17.137 C 39.363,14.526 39.604,11.775 39.186,9.093 38.962,4.959 37.229,0.913 34.033,-2.185 29.253,-6.826 22.504,-8.121 16.612,-6.136 l -5.662,-5.669 -17.211,-17.204 -6.218,-6.213 c 0.827,-4.36 -0.444,-9.06 -3.825,-12.447 -5.441,-5.435 -14.25,-5.435 -19.684,0 -5.435,5.445 -5.435,14.249 0,19.684 3.238,3.251 7.668,4.508 11.881,3.885 l 6.897,6.898 z"
             style="fill:#662e88;fill-opacity:1;fill-rule:nonzero;stroke:none"
             id="path20" /></g><g
           id="g22"
           transform="translate(146.8247,128.9287)"><path
             d="m 0,0 -19,20.489 c -0.351,0.316 -0.628,0.702 -0.758,1.185 l -5.034,19.893 c -0.241,0.859 0.031,1.735 0.642,2.339 l 0.03,0.019 c 0.648,0.573 1.537,0.763 2.369,0.493 l 19.462,-6.532 c 0.47,-0.167 0.839,-0.489 1.117,-0.865 L 17.211,17.202 28.161,5.396 47.641,-15.613 c 2.363,-2.56 2.302,-6.458 -0.153,-8.753 l -8.92,-8.248 c -2.449,-2.314 -6.379,-2.085 -8.767,0.468 L 10.95,-11.808 Z"
             style="fill:#662e88;fill-opacity:1;fill-rule:nonzero;stroke:none"
             id="path24" /></g><g
           id="g26"
           transform="translate(227.4678,157.3076)"><path
             d="m 0,0 c -2.856,0 -5.176,2.313 -5.176,5.176 0,2.862 2.32,5.175 5.176,5.175 2.856,0 5.176,-2.313 5.176,-5.175 C 5.176,2.313 2.856,0 0,0"
             style="fill:#662e88;fill-opacity:1;fill-rule:nonzero;stroke:none"
             id="path28" /></g><g
           id="g30"
           transform="translate(213.5078,182.8457)"><path
             d="m 0,0 c -2.862,0 -5.176,2.313 -5.176,5.176 0,2.862 2.314,5.176 5.176,5.176 2.85,0 5.176,-2.314 5.176,-5.176 C 5.176,2.313 2.85,0 0,0"
             style="fill:#662e88;fill-opacity:1;fill-rule:nonzero;stroke:none"
             id="path32" /></g><g
           id="g34"
           transform="translate(114.5425,184.9121)"><path
             d="m 0,0 c -2.856,0 -5.176,2.313 -5.176,5.176 0,2.862 2.32,5.176 5.176,5.176 2.856,0 5.176,-2.314 5.176,-5.176 C 5.176,2.313 2.856,0 0,0"
             style="fill:#662e88;fill-opacity:1;fill-rule:nonzero;stroke:none"
             id="path36" /></g><g
           id="g38"
           transform="translate(97.7632,170.2187)"><path
             d="m 0,0 c 2.863,0 5.176,-2.313 5.176,-5.176 0,-2.862 -2.313,-5.177 -5.176,-5.177 -2.85,0 -5.175,2.315 -5.175,5.177 C -5.175,-2.313 -2.85,0 0,0"
             style="fill:#662e88;fill-opacity:1;fill-rule:nonzero;stroke:none"
             id="path40" /></g><g
           id="g42"
           transform="translate(102.063,125.8496)"><path
             d="m 0,0 c -0.827,-0.143 -1.666,-0.166 -2.499,-0.043 l -1.813,-2.932 -2.689,1.043 0.721,3.381 c -0.691,0.493 -1.295,1.073 -1.795,1.735 l -3.368,-0.79 -1.147,2.646 2.905,1.882 C -9.82,7.741 -9.839,8.567 -9.722,9.426 l -2.973,1.758 1.061,2.69 3.411,-0.704 c 0.487,0.697 1.079,1.299 1.734,1.799 l -0.858,3.368 2.659,1.146 1.918,-2.904 c 0.814,0.129 1.641,0.136 2.48,0.036 l 1.789,2.998 2.689,-1.054 -0.709,-3.43 C 4.164,14.642 4.763,14.064 5.268,13.404 L 8.643,14.269 9.802,11.608 6.884,9.696 C 7.026,8.871 7.045,8.038 6.946,7.205 L 9.901,5.392 8.846,2.688 5.453,3.418 C 4.96,2.721 4.38,2.122 3.726,1.609 L 4.528,-1.745 1.875,-2.899 Z"
             style="fill:#662e88;fill-opacity:1;fill-rule:nonzero;stroke:none"
             id="path44" /></g><g
           id="g46"
           transform="translate(109.3667,96.1973)"><path
             d="m 0,0 c -2.85,0 -5.175,2.313 -5.175,5.175 0,2.862 2.325,5.176 5.175,5.176 2.862,0 5.176,-2.314 5.176,-5.176 C 5.176,2.313 2.862,0 0,0"
             style="fill:#662e88;fill-opacity:1;fill-rule:nonzero;stroke:none"
             id="path48" /></g><g
           id="g50"
           transform="translate(127.7124,72.6563)"><path
             d="m 0,0 c -2.85,0 -5.175,2.313 -5.175,5.176 0,2.862 2.325,5.176 5.175,5.176 2.863,0 5.176,-2.314 5.176,-5.176 C 5.176,2.313 2.863,0 0,0"
             style="fill:#662e88;fill-opacity:1;fill-rule:nonzero;stroke:none"
             id="path52" /></g><g
           id="g54"
           transform="translate(77.6343,321.6206)"><path
             d="M 0,0 C -0.617,3.893 0.346,7.655 2.344,10.734 L -9.271,22.35 c -4.448,-5.441 -7.125,-12.381 -7.125,-19.944 0,-7.563 2.677,-14.509 7.13,-19.95 L 2.32,-5.959 C 1.179,-4.194 0.346,-2.202 0,0"
             style="fill:#662e88;fill-opacity:1;fill-rule:nonzero;stroke:none"
             id="path56" /></g><g
           id="g58"
           transform="translate(112.7534,299.5923)"><path
             d="m 0,0 -11.604,11.585 c -1.782,-1.16 -3.788,-1.968 -5.953,-2.313 -0.814,-0.13 -1.628,-0.198 -2.43,-0.198 -3.078,0 -5.934,0.932 -8.346,2.498 L -39.906,0 c 5.441,-4.454 12.387,-7.131 19.95,-7.131 7.562,0 14.509,2.677 19.956,7.131"
             style="fill:#662e88;fill-opacity:1;fill-rule:nonzero;stroke:none"
             id="path60" /></g><g
           id="g62"
           transform="translate(232.3779,355.5864)"><path
             d="m 0,0 c -9.604,0 -18.198,-4.318 -23.997,-11.097 h 47.98 C 18.191,-4.318 9.592,0 0,0"
             style="fill:#662e88;fill-opacity:1;fill-rule:nonzero;stroke:none"
             id="path64" /></g><g
           id="g66"
           transform="translate(90.3975,339.1895)"><path
             d="M 0,0 C 3.979,0.635 7.724,-0.327 10.765,-2.313 L 22.356,9.266 c -5.447,4.453 -12.394,7.13 -19.956,7.13 -7.563,0 -14.509,-2.677 -19.95,-7.13 L -5.965,-2.326 C -4.207,-1.178 -2.208,-0.346 0,0"
             style="fill:#662e88;fill-opacity:1;fill-rule:nonzero;stroke:none"
             id="path68" /></g><g
           id="g70"
           transform="translate(107.9536,326.4204)"><path
             d="M 0,0 C 0.604,-3.776 -0.259,-7.551 -2.337,-10.74 L 9.278,-22.344 c 4.454,5.441 7.131,12.387 7.131,19.95 0,7.563 -2.677,14.503 -7.131,19.944 L -2.307,5.977 C -1.166,4.213 -0.345,2.202 0,0"
             style="fill:#662e88;fill-opacity:1;fill-rule:nonzero;stroke:none"
             id="path72" /></g><g
           id="g74"
           transform="translate(92.8037,333.0454)"><path
             d="m 0,0 c -0.469,0 -0.938,-0.037 -1.413,-0.117 -4.91,-0.778 -8.272,-5.41 -7.495,-10.321 0.753,-4.805 5.379,-8.278 10.308,-7.488 2.381,0.382 4.478,1.665 5.892,3.621 1.412,1.943 1.979,4.318 1.597,6.686 C 8.204,-3.27 4.386,0 0,0"
             style="fill:#662e88;fill-opacity:1;fill-rule:nonzero;stroke:none"
             id="path76" /></g><g
           id="g78"
           transform="translate(204.1924,338.1719)"><path
             d="m 0,0 c -1.696,-3.375 -2.837,-7.07 -3.226,-10.993 h 62.81 C 59.195,-7.07 58.055,-3.375 56.358,0 Z"
             style="fill:#662e88;fill-opacity:1;fill-rule:nonzero;stroke:none"
             id="path80" /></g><g
           id="g82"
           transform="translate(232.3779,292.4614)"><path
             d="M 0,0 C 9.592,0 18.187,4.318 23.979,11.098 H -23.99 C -18.198,4.318 -9.604,0 0,0"
             style="fill:#662e88;fill-opacity:1;fill-rule:nonzero;stroke:none"
             id="path84" /></g><g
           id="g86"
           transform="translate(265.4971,81.4014)"><path
             d="M 0,0 C 1.121,1.262 2.225,2.533 3.319,3.807 2.227,2.677 1.061,1.629 -0.174,0.677 Z"
             style="fill:#652e87;fill-opacity:1;fill-rule:nonzero;stroke:none"
             id="path88" /></g><g
           id="g90"
           transform="translate(269.0508,85.4756)"><path
             d="M 0,0 C 0.983,1.146 1.948,2.301 2.91,3.457 L 2.88,3.463 C 1.999,2.229 1.026,1.084 0,0"
             style="fill:#652e87;fill-opacity:1;fill-rule:nonzero;stroke:none"
             id="path92" /></g><g
           id="g94"
           transform="translate(204.1992,309.8755)"><path
             d="m 0,0 h 56.345 c 1.703,3.368 2.838,7.063 3.232,10.987 H -3.231 C -2.838,7.063 -1.703,3.368 0,0"
             style="fill:#662e88;fill-opacity:1;fill-rule:nonzero;stroke:none"
             id="path96" /></g><g
           id="g98"
           transform="translate(239.9238,140.0508)"><path
             d="M 0,0 -3.885,5.979 C -8.253,4.924 -12.467,3.099 -16.332,0.523 l 1.763,-6.903 c -2.499,-1.928 -4.726,-4.232 -6.609,-6.86 l -6.976,1.469 c -2.404,-3.96 -4.052,-8.245 -4.934,-12.653 l 6.125,-3.641 c -0.414,-3.206 -0.339,-6.414 0.205,-9.523 l -5.985,-3.889 c 1.056,-4.368 2.874,-8.586 5.454,-12.44 l 6.908,1.756 c 1.1,-1.422 2.985,-3.415 4.98,-5.118 2.98,4.442 5.803,9.024 8.388,13.718 -2.753,3.005 -4.471,6.978 -4.471,11.386 0,9.112 7.184,16.456 16.206,16.827 C 6.134,-10.2 7.145,-4.995 7.653,0.24 5.388,0.275 1.668,0.284 0,0"
             style="fill:#662e88;fill-opacity:1;fill-rule:nonzero;stroke:none"
             id="path100" /></g><g
           id="g102"
           transform="translate(134.6919,41.7832)"><path
             d="M 0,0 C 0.076,0.101 0.17,0.182 0.247,0.281 L 0.218,0.309 C 0.097,0.137 0,0 0,0"
             style="fill:#652e87;fill-opacity:1;fill-rule:nonzero;stroke:none"
             id="path104" /></g><g
           id="g106"
           transform="translate(142.0605,49.0371)"><path
             d="m 0,0 c -0.188,-0.142 -2.491,-1.87 -0.141,-0.122 0.05,0.036 0.092,0.083 0.141,0.119 z"
             style="fill:#652e87;fill-opacity:1;fill-rule:nonzero;stroke:none"
             id="path108" /></g><g
           id="g110"
           transform="translate(134.8789,42.1201)"><path
             d="M 0,0 0.031,-0.028 C 0.43,0.536 1.108,1.506 0,0"
             style="fill:#652e87;fill-opacity:1;fill-rule:nonzero;stroke:none"
             id="path112" /></g><g
           id="g114"
           transform="translate(183.9248,48.4404)"><path
             d="M 0,0 C 0,0 2.429,-1.718 -0.161,0.181 L 3.213,14.412 -7.959,19.137 -15.738,6.812 c -3.41,0.543 -6.888,0.595 -10.382,0.085 l -7.716,12.47 -11.209,-4.529 3.181,-14.241 c 0.007,0.005 0.034,0.025 0.034,0.025 -0.012,-0.008 -0.022,-0.019 -0.034,-0.028 l 0.003,-0.013 c -0.063,-0.046 -0.087,-0.064 -0.144,-0.106 -2.62,-1.927 -4.964,-4.215 -6.981,-6.85 l 10.465,-9.461 c 3.779,5.44 10.065,9.005 17.209,9.005 7.13,0 13.406,-3.551 17.186,-8.976 l 10.44,9.441 C 4.436,-3.99 2.353,-1.841 0,0"
             style="fill:#662e88;fill-opacity:1;fill-rule:nonzero;stroke:none"
             id="path116" /></g><g
           id="g118"
           transform="translate(197.3271,25.2266)"><path
             d="M 0,0 C 0.435,-3.004 -0.001,0.01 -0.001,0.01 Z"
             style="fill:#652e87;fill-opacity:1;fill-rule:nonzero;stroke:none"
             id="path120" /></g><g
           id="g122"
           transform="translate(291.3506,310.8623)"><path
             d="m 0,0 c -0.339,-1.856 -2.165,-3.115 -4.059,-2.794 l -5.459,0.962 c -0.42,0.074 -0.801,0.241 -1.166,0.457 -1.037,-3.344 -2.437,-6.638 -4.244,-9.809 0.413,-0.105 0.822,-0.271 1.178,-0.543 l 4.497,-3.213 c 1.555,-1.117 1.896,-3.301 0.773,-4.824 l -3.345,-4.571 c -1.123,-1.537 -3.319,-1.87 -4.866,-0.753 l -4.497,3.226 c -0.376,0.278 -0.686,0.623 -0.919,1 -2.488,-2.64 -5.245,-4.96 -8.175,-6.965 0.364,-0.284 0.684,-0.642 0.92,-1.086 l 2.615,-4.848 c 0.889,-1.678 0.234,-3.788 -1.45,-4.677 l -5.015,-2.645 c -1.696,-0.889 -3.807,-0.235 -4.713,1.431 l -2.609,4.873 c -0.235,0.438 -0.363,0.901 -0.383,1.369 -3.387,-1.283 -6.903,-2.19 -10.479,-2.72 0.22,-0.444 0.369,-0.913 0.387,-1.438 l 0.203,-5.515 c 0.069,-1.881 -1.449,-3.485 -3.374,-3.546 l -5.663,-0.217 c -1.918,-0.061 -3.535,1.438 -3.602,3.338 L -63.647,-38 c -0.02,0.531 0.123,1.031 0.333,1.494 -3.598,0.308 -7.176,0.968 -10.699,2.066 0.019,-0.506 -0.037,-1.024 -0.264,-1.518 l -2.264,-5.027 c -0.784,-1.733 -2.863,-2.523 -4.603,-1.746 l -5.206,2.289 c -1.733,0.777 -2.535,2.825 -1.764,4.558 l 2.276,5.022 c 0.222,0.5 0.574,0.907 0.975,1.234 -3.2,1.887 -6.095,4.084 -8.698,6.508 -0.21,-0.475 -0.5,-0.925 -0.925,-1.283 l -4.263,-3.535 c -1.468,-1.209 -3.677,-1.03 -4.91,0.432 l -3.664,4.318 c -1.228,1.456 -1.025,3.627 0.437,4.861 l 4.257,3.535 c 0.426,0.351 0.919,0.555 1.431,0.672 -2.005,3.035 -3.696,6.243 -4.99,9.599 -0.395,-0.315 -0.833,-0.574 -1.358,-0.704 l -5.403,-1.338 c -1.851,-0.463 -3.751,0.684 -4.22,2.529 l -1.369,5.459 c -0.457,1.839 0.678,3.726 2.547,4.177 l 5.387,1.338 c 0.51,0.13 1.035,0.105 1.535,0 -0.469,3.56 -0.562,7.162 -0.246,10.758 -0.482,-0.111 -0.976,-0.136 -1.488,-0.031 l -5.423,1.148 c -1.886,0.388 -3.084,2.245 -2.689,4.096 l 1.172,5.515 c 0.395,1.857 2.27,3.047 4.139,2.653 l 5.442,-1.142 c 0.469,-0.092 0.894,-0.284 1.27,-0.549 1.042,3.085 2.413,6.113 4.115,9.043 0.131,0.223 0.277,0.414 0.401,0.63 -0.42,0.117 -0.833,0.314 -1.209,0.61 l -4.387,3.381 c -1.509,1.166 -1.769,3.362 -0.591,4.855 l 3.509,4.435 c 1.166,1.499 3.375,1.758 4.874,0.592 l 4.392,-3.386 c 0.351,-0.29 0.642,-0.623 0.864,-1 2.547,2.573 5.329,4.824 8.321,6.755 -0.308,0.29 -0.585,0.604 -0.777,0.999 l -2.442,4.948 c -0.826,1.696 -0.106,3.788 1.615,4.62 l 5.103,2.468 c 1.733,0.833 3.824,0.111 4.664,-1.592 l 2.429,-4.947 c 0.192,-0.377 0.279,-0.772 0.309,-1.172 3.392,1.178 6.915,1.98 10.493,2.43 -0.136,0.352 -0.235,0.747 -0.235,1.153 v 5.503 c 0,1.907 1.573,3.455 3.486,3.455 h 5.675 c 1.926,0 3.485,-1.548 3.485,-3.455 V 64.21 c 0,-0.381 -0.098,-0.727 -0.216,-1.073 2.381,-0.277 4.756,-0.764 7.1,-1.4 0.031,0.376 0.062,0.741 0.224,1.104 l 2.071,5.114 c 0.716,1.752 2.77,2.61 4.554,1.894 l 5.273,-2.103 c 1.758,-0.716 2.622,-2.727 1.912,-4.491 l -2.091,-5.114 c -0.141,-0.346 -0.377,-0.636 -0.611,-0.913 0.297,-0.161 0.6,-0.284 0.901,-0.451 2.881,-1.659 5.528,-3.559 7.946,-5.644 0.173,0.308 0.37,0.611 0.641,0.864 l 4.127,3.682 c 1.419,1.265 3.646,1.148 4.91,-0.265 l 3.831,-4.194 c 1.277,-1.407 1.147,-3.591 -0.265,-4.862 l -4.133,-3.689 c -0.303,-0.246 -0.63,-0.413 -0.975,-0.561 2.078,-2.942 3.819,-6.064 5.202,-9.345 0.313,0.209 0.633,0.413 1.016,0.518 l 5.349,1.53 c 1.838,0.518 3.781,-0.562 4.311,-2.382 L -0.146,27.02 C 0.377,25.2 -0.715,23.281 -2.541,22.756 L -7.89,21.227 c -0.388,-0.105 -0.77,-0.105 -1.153,-0.086 0.567,-3.504 0.722,-7.07 0.52,-10.66 0.387,0.08 0.782,0.104 1.209,0.037 L -1.838,9.562 C 0.037,9.223 1.314,7.421 0.976,5.546 Z m -43.772,-170.571 c -0.511,-5.236 -1.521,-10.441 -2.933,-15.588 -2.657,-9.684 -6.749,-19.157 -11.733,-28.213 -2.585,-4.694 -5.41,-9.276 -8.39,-13.719 -10.261,-15.295 -22.397,-28.923 -33.197,-39.716 l -1.086,-0.982 -10.441,-9.439 -0.059,-0.054 c -9.972,-9.057 -16.989,-14.347 -17.155,-14.472 l 0.031,-0.024 h -0.062 l 0.031,0.024 c -0.167,0.125 -7.184,5.415 -17.155,14.472 l -0.026,0.024 -10.465,9.461 c -0.076,-0.1 -0.171,-0.182 -0.247,-0.283 0,0 0.097,0.138 0.219,0.309 l -0.032,0.028 -1.034,0.936 c -24.799,24.781 -56.642,64.495 -56.642,105.038 0,23.955 14.63,48.591 38.691,62.985 1.206,-3.062 2.686,-6.041 4.512,-8.862 l 0.011,0.002 0.001,-0.002 8.865,2.134 c 2.424,-3.227 5.329,-6.119 8.673,-8.555 l -2.005,-8.896 0.001,-0.001 -0.001,-0.006 c 0.457,-0.286 0.936,-0.518 1.4,-0.787 0.845,-0.492 1.686,-0.996 2.553,-1.435 0.204,-0.103 0.416,-0.184 0.621,-0.284 1.167,-0.57 2.345,-1.109 3.543,-1.585 l 0.017,-0.007 0.009,-10e-4 c 2.597,-1.029 5.259,-1.846 7.964,-2.428 l 4.768,7.78 c 4.09,-0.58 8.199,-0.532 12.183,0.092 l 4.867,-7.711 c 5.608,1.283 11.037,3.541 16.015,6.761 l -0.003,0.012 h 0.003 l -2.135,8.865 c 3.227,2.425 6.119,5.329 8.557,8.674 l 8.894,-2.006 0.001,0.001 0.006,-0.001 c 0.282,0.448 0.508,0.918 0.773,1.373 0.498,0.855 1.008,1.705 1.451,2.581 0.1,0.198 0.177,0.403 0.273,0.601 0.576,1.173 1.117,2.357 1.594,3.562 0.003,0.009 0.008,0.018 0.011,0.026 h -0.002 c 0.009,0.021 0.016,0.043 0.022,0.064 24.024,-14.4 38.63,-39.013 38.63,-62.946 0,-2.605 -0.136,-5.207 -0.387,-7.802 m -50.25,-115.065 -10e-4,0.01 c 0,0 0.434,-3.014 10e-4,-0.01 m -126.689,242.899 -5.207,2.295 c -1.733,0.771 -2.536,2.819 -1.764,4.558 l 2.276,5.015 c 0.222,0.507 0.574,0.908 0.975,1.235 -3.202,1.893 -6.095,4.09 -8.698,6.514 -0.21,-0.482 -0.5,-0.932 -0.926,-1.283 l -4.262,-3.535 c -1.469,-1.209 -3.677,-1.03 -4.911,0.425 l -3.664,4.319 c -1.227,1.462 -1.024,3.633 0.438,4.867 l 4.257,3.528 c 0.425,0.358 0.919,0.555 1.431,0.673 -2.005,3.035 -3.695,6.249 -4.99,9.598 -0.395,-0.314 -0.833,-0.574 -1.358,-0.703 l -5.404,-1.338 c -1.85,-0.463 -3.75,0.684 -4.219,2.528 l -1.369,5.46 c -0.457,1.845 0.678,3.732 2.547,4.183 l 5.386,1.332 c 0.511,0.136 1.036,0.105 1.536,0 -0.469,3.559 -0.562,7.168 -0.247,10.764 -0.482,-0.111 -0.975,-0.136 -1.487,-0.036 l -5.422,1.153 c -1.888,0.382 -3.084,2.245 -2.69,4.09 l 1.172,5.521 c 0.395,1.85 2.27,3.041 4.14,2.653 l 5.441,-1.148 c 0.468,-0.093 0.894,-0.284 1.27,-0.549 1.043,3.091 2.412,6.119 4.115,9.043 0.129,0.222 0.277,0.42 0.401,0.636 -0.42,0.111 -0.833,0.308 -1.209,0.605 l -4.387,3.386 c -1.511,1.166 -1.77,3.362 -0.592,4.848 l 3.51,4.436 c 1.166,1.505 3.374,1.758 4.873,0.592 l 4.393,-3.386 c 0.352,-0.284 0.642,-0.624 0.864,-1 2.547,2.573 5.329,4.83 8.321,6.755 -0.308,0.29 -0.586,0.61 -0.777,0.999 l -2.443,4.948 c -0.827,1.702 -0.105,3.787 1.617,4.62 l 5.101,2.468 c 1.733,0.839 3.824,0.11 4.664,-1.586 l 2.43,-4.954 c 0.191,-0.37 0.278,-0.771 0.308,-1.171 3.393,1.184 6.916,1.986 10.487,2.43 -0.13,0.358 -0.234,0.753 -0.234,1.159 v 5.503 c 0,1.9 1.579,3.455 3.492,3.455 h 5.668 c 1.931,0 3.492,-1.555 3.492,-3.455 V 64.21 c 0,-0.381 -0.105,-0.733 -0.222,-1.073 2.381,-0.277 4.756,-0.77 7.107,-1.406 0.03,0.376 0.061,0.74 0.215,1.104 l 2.079,5.114 c 0.715,1.758 2.77,2.616 4.546,1.9 l 5.275,-2.11 c 1.758,-0.709 2.621,-2.726 1.912,-4.484 l -2.091,-5.114 c -0.142,-0.352 -0.376,-0.636 -0.611,-0.913 0.302,-0.161 0.605,-0.284 0.901,-0.451 2.887,-1.659 5.533,-3.559 7.951,-5.644 0.167,0.303 0.365,0.605 0.642,0.858 l 4.12,3.682 c 1.425,1.271 3.646,1.148 4.911,-0.259 l 3.831,-4.194 c 1.283,-1.407 1.147,-3.597 -0.265,-4.862 l -4.134,-3.689 c -0.296,-0.252 -0.623,-0.413 -0.968,-0.561 2.079,-2.942 3.818,-6.07 5.2,-9.352 0.309,0.216 0.629,0.413 1.012,0.518 l 5.354,1.53 c 1.832,0.525 3.775,-0.555 4.306,-2.375 l 1.579,-5.409 c 0.519,-1.82 -0.574,-3.745 -2.399,-4.27 l -5.343,-1.523 c -0.388,-0.105 -0.771,-0.105 -1.153,-0.093 0.568,-3.504 0.715,-7.069 0.512,-10.659 0.394,0.08 0.789,0.11 1.209,0.037 l 5.478,-0.956 c 1.875,-0.34 3.152,-2.141 2.819,-4.01 l -0.974,-5.552 c -0.346,-1.857 -2.172,-3.109 -4.06,-2.788 l -5.465,0.962 c -0.42,0.068 -0.802,0.241 -1.16,0.451 -1.036,-3.344 -2.443,-6.638 -4.244,-9.809 0.413,-0.099 0.814,-0.271 1.178,-0.537 l 4.491,-3.22 c 1.555,-1.116 1.9,-3.294 0.777,-4.824 l -3.349,-4.564 c -1.117,-1.537 -3.319,-1.876 -4.861,-0.759 l -4.497,3.232 c -0.383,0.278 -0.685,0.617 -0.919,0.993 -2.493,-2.633 -5.244,-4.953 -8.174,-6.958 0.364,-0.284 0.678,-0.642 0.913,-1.086 l 2.616,-4.855 c 0.887,-1.671 0.234,-3.787 -1.45,-4.67 l -5.016,-2.645 c -1.69,-0.889 -3.799,-0.235 -4.706,1.431 l -2.616,4.873 c -0.234,0.431 -0.357,0.901 -0.382,1.369 -3.387,-1.283 -6.897,-2.19 -10.481,-2.726 0.228,-0.445 0.376,-0.913 0.389,-1.438 l 0.203,-5.509 c 0.074,-1.881 -1.45,-3.491 -3.368,-3.553 l -5.663,-0.216 c -1.924,-0.061 -3.534,1.444 -3.609,3.344 l -0.203,5.508 c -0.012,0.525 0.129,1.031 0.339,1.487 -3.596,0.309 -7.174,0.975 -10.697,2.067 0.019,-0.5 -0.036,-1.024 -0.265,-1.517 l -2.264,-5.028 c -0.783,-1.734 -2.862,-2.517 -4.601,-1.746 m 103.05,-20.512 c -5.658,-6.055 -11.13,-10.128 -11.13,-10.128 0,0 -5.439,4.06 -11.073,10.097 -6.059,6.493 -12.344,15.276 -12.344,23.856 l 3.388,4.097 20.054,24.261 20.078,-24.284 3.369,-4.074 c 0,-8.566 -6.279,-17.335 -12.342,-23.825 m 6.625,-29.822 c -2.355,-3.558 -5.857,-6.477 -9.831,-8.074 -0.005,0.023 -0.009,0.049 -0.014,0.072 -5.291,-2.072 -10.536,-2.073 -15.735,-0.002 -0.005,-0.021 -0.008,-0.043 -0.012,-0.064 -5.293,2.127 -9.76,6.61 -11.888,11.899 0.024,0.006 0.05,0.009 0.074,0.014 -0.012,0.03 -0.019,0.06 -0.031,0.089 6.249,1.327 12.824,2.065 19.707,2.065 6.896,0 13.485,-0.74 19.745,-2.073 l 0.023,-0.003 c -0.013,-0.033 -0.022,-0.065 -0.034,-0.098 0.021,-0.004 0.043,-0.007 0.064,-0.012 -0.528,-1.314 -1.288,-2.638 -2.068,-3.813 0.315,0.474 -0.275,-0.414 0,0 m -17.767,214.528 c 21.017,0 41.153,-6.107 58.338,-17.439 -1.456,-0.814 -3.011,-1.561 -4.417,-2.406 -25.292,-15.169 -45.415,-36.939 -53.971,-63.057 -8.562,26.118 -28.678,47.888 -53.97,63.057 -1.357,0.814 -2.85,1.53 -4.244,2.307 17.217,11.326 37.407,17.538 58.264,17.538 M 4.744,-25.138 c 6.619,11.104 10.499,24.028 10.499,37.865 0,0.185 -0.024,0.363 -0.024,0.548 0.08,73.569 15.563,114.461 15.563,114.461 H 27.18 c -31.436,0 -62.86,-6.902 -88.576,-19.085 -19.5,14.089 -42.862,21.714 -67.321,21.714 -24.286,0 -47.789,-7.686 -67.307,-21.758 -25.742,12.214 -57.215,19.129 -88.682,19.129 h -3.609 c 0,0 15.49,-40.892 15.57,-114.461 0,-0.185 -0.019,-0.363 -0.019,-0.548 0,-13.837 3.868,-26.761 10.487,-37.865 -65.445,-83.092 -2.269,-195.909 98.595,-262.879 5.043,-3.349 10.181,-6.581 15.401,-9.691 6.39,-3.807 12.897,-7.438 19.515,-10.855 h 0.006 c 6.662,3.438 13.179,7.144 19.611,10.979 5.167,3.081 10.261,6.262 15.254,9.578 20.935,13.901 40.274,29.742 57.151,46.918 3.75,3.816 7.39,7.691 10.89,11.627 l -0.173,0.676 c 1.234,0.952 2.4,2 3.493,3.13 0.077,0.09 0.157,0.178 0.234,0.268 1.028,1.084 1.999,2.23 2.88,3.463 l 0.03,-0.006 c 3.408,4.094 6.67,8.243 9.786,12.436 44.294,59.641 58.207,128.673 14.348,184.356"
             style="fill:#662e88;fill-opacity:1;fill-rule:nonzero;stroke:none"
             id="path124" /></g></g></g></g></svg>
